<?xml version="1.0" encoding="utf-8"?>
<!-- Generator: Adobe Illustrator 18.0.0, SVG Export Plug-In . SVG Version: 6.00 Build 0)  -->
<!DOCTYPE svg PUBLIC "-//W3C//DTD SVG 1.1//EN" "http://www.w3.org/Graphics/SVG/1.1/DTD/svg11.dtd">
<svg version="1.1" id="Capa_1" xmlns="http://www.w3.org/2000/svg" xmlns:xlink="http://www.w3.org/1999/xlink" x="0px" y="0px"
	 viewBox="0 0 566.9 566.9" enable-background="new 0 0 566.9 566.9" xml:space="preserve">
<g>
	<path fill="#66CCFF" d="M283.6,2.8L283.6,2.8c-25.9,0-47.1,21.2-47.1,47.1v470c0,25.9,21.2,47.1,47.1,47.1l0,0
		c25.9,0,47.1-21.2,47.1-47.1v-470C330.7,24,309.5,2.8,283.6,2.8z"/>
	<path fill="#66CCFF" d="M76.5,312.8L76.5,312.8c-18.3,18.3-18.3,48.3,0,66.6l173.8,173.8c18.3,18.3,48.3,18.3,66.6,0l0,0
		c18.3-18.3,18.3-48.3,0-66.6L143.1,312.8C124.8,294.5,94.8,294.5,76.5,312.8z"/>
	<path fill="#66CCFF" d="M492.6,312.8L492.6,312.8c18.3,18.3,18.3,48.3,0,66.6L318.8,553.2c-18.3,18.3-48.3,18.3-66.6,0l0,0
		c-18.3-18.3-18.3-48.3,0-66.6l173.9-173.8C444.4,294.5,474.3,294.5,492.6,312.8z"/>
</g>
</svg>
