<?xml version="1.0" encoding="utf-8"?>
<!-- Generator: Adobe Illustrator 18.0.0, SVG Export Plug-In . SVG Version: 6.00 Build 0)  -->
<!DOCTYPE svg PUBLIC "-//W3C//DTD SVG 1.1//EN" "http://www.w3.org/Graphics/SVG/1.1/DTD/svg11.dtd">
<svg version="1.1" id="Capa_1" xmlns="http://www.w3.org/2000/svg" xmlns:xlink="http://www.w3.org/1999/xlink" x="0px" y="0px"
	 viewBox="0 0 566.9 566.9" enable-background="new 0 0 566.9 566.9" xml:space="preserve">
<g>
	<path fill="#66CCFF" d="M285.6,566.9L285.6,566.9c25.9,0,47.1-21.2,47.1-47.1v-470c0-25.9-21.2-47.1-47.1-47.1l0,0
		c-25.9,0-47.1,21.2-47.1,47.1v470C238.5,545.7,259.7,566.9,285.6,566.9z"/>
	<path fill="#66CCFF" d="M492.6,257L492.6,257c18.3-18.3,18.3-48.3,0-66.6L318.8,16.5c-18.3-18.3-48.3-18.3-66.6,0l0,0
		c-18.3,18.3-18.3,48.3,0,66.6L426.1,257C444.4,275.3,474.3,275.3,492.6,257z"/>
	<path fill="#66CCFF" d="M76.5,257L76.5,257c-18.3-18.3-18.3-48.3,0-66.6L250.4,16.5c18.3-18.3,48.3-18.3,66.6,0l0,0
		c18.3,18.3,18.3,48.3,0,66.6L143.1,257C124.8,275.3,94.8,275.3,76.5,257z"/>
</g>
</svg>
