<?xml version="1.0" encoding="utf-8"?>
<!-- Generator: Adobe Illustrator 18.0.0, SVG Export Plug-In . SVG Version: 6.00 Build 0)  -->
<!DOCTYPE svg PUBLIC "-//W3C//DTD SVG 1.1//EN" "http://www.w3.org/Graphics/SVG/1.1/DTD/svg11.dtd">
<svg version="1.1" id="High_2_" xmlns="http://www.w3.org/2000/svg" xmlns:xlink="http://www.w3.org/1999/xlink" x="0px" y="0px"
	 viewBox="0 0 841.9 595.3" enable-background="new 0 0 841.9 595.3" xml:space="preserve">
<path fill="#FFFF00" d="M420.9,520.5L420.9,520.5c20.5,0,37.2-16.7,37.2-37.2V112c0-20.5-16.7-37.2-37.2-37.2l0,0
	c-20.5,0-37.2,16.7-37.2,37.2v371.4C383.7,503.8,400.5,520.5,420.9,520.5z"/>
<path fill="#FFFF00" d="M584.6,275.6L584.6,275.6c14.5-14.5,14.5-38.1,0-52.6L447.2,85.6c-14.5-14.5-38.1-14.5-52.6,0l0,0
	c-14.5,14.5-14.5,38.1,0,52.6L532,275.6C546.4,290.1,570.1,290.1,584.6,275.6z"/>
<path fill="#FFFF00" d="M255.8,275.6L255.8,275.6c-14.5-14.5-14.5-38.1,0-52.6L393.1,85.6c14.5-14.5,38.1-14.5,52.6,0l0,0
	c14.5,14.5,14.5,38.1,0,52.6L308.4,275.6C293.9,290.1,270.2,290.1,255.8,275.6z"/>
</svg>
